# This file uses centimeters as units for non-parametric coordinates.

mtllib floorDecoration_tilesLarge half.mtl
g default
v -1.322500 0.000000 2.900000
v -1.262500 0.050000 2.835000
v -1.322500 0.000000 1.600000
v -1.262500 0.050000 1.665000
v -0.122500 0.000000 2.900000
v -0.182500 0.050000 2.835000
v -0.122500 0.000000 1.600000
v -0.182500 0.050000 1.665000
v 0.077500 0.000000 2.900000
v 0.137500 0.050000 2.870000
v 0.077500 0.000000 2.300000
v 0.137500 0.050000 2.330000
v 1.277500 0.000000 2.900000
v 1.217500 0.050000 2.870000
v 1.277500 0.000000 2.300000
v 1.217500 0.050000 2.330000
v 0.077500 0.000000 2.100000
v 0.167500 0.050000 2.050000
v 0.077500 0.000000 1.100000
v 0.167500 0.050000 1.150000
v 1.322500 0.000000 2.100000
v 1.232500 0.050000 2.050000
v 1.322500 0.000000 1.100000
v 1.232500 0.050000 1.150000
v 1.077500 0.000000 -2.500000
v 1.087500 0.050000 -2.520000
v 1.077500 0.000000 -2.900000
v 1.087500 0.050000 -2.880000
v 1.277500 0.000000 -2.500000
v 1.267500 0.050000 -2.520000
v 1.277500 0.000000 -2.900000
v 1.267500 0.050000 -2.880000
v 0.837500 0.050000 -2.880000
v 0.877500 0.000000 -2.900000
v 0.837500 0.050000 -2.520000
v 0.877500 0.000000 -2.500000
v 0.117500 0.050000 -2.880000
v 0.077500 0.000000 -2.900000
v 0.117500 0.050000 -2.520000
v 0.077500 0.000000 -2.500000
v 0.077500 0.000000 -1.000000
v 0.137500 0.050000 -1.065000
v 0.077500 0.000000 -2.300000
v 0.137500 0.050000 -2.235000
v 1.277500 0.000000 -1.000000
v 1.217500 0.050000 -1.065000
v 1.277500 0.000000 -2.300000
v 1.217500 0.050000 -2.235000
v -0.182500 0.050000 -2.830000
v -0.122500 0.000000 -2.900000
v -0.182500 0.050000 -1.570000
v -0.122500 0.000000 -1.500000
v -1.262500 0.050000 -2.830000
v -1.322500 0.000000 -2.900000
v -1.262500 0.050000 -1.570000
v -1.322500 0.000000 -1.500000
v -1.322500 0.000000 0.900000
v -1.237500 0.050000 0.815000
v -1.322500 0.000000 -0.800000
v -1.237500 0.050000 -0.715000
v 0.377500 0.000000 0.900000
v 0.292500 0.050000 0.815000
v 0.377500 0.000000 -0.800000
v 0.292500 0.050000 -0.715000
v -0.657500 0.050000 -1.285000
v -0.622500 0.000000 -1.300000
v -0.657500 0.050000 -1.015000
v -0.622500 0.000000 -1.000000
v -1.287500 0.050000 -1.285000
v -1.322500 0.000000 -1.300000
v -1.287500 0.050000 -1.015000
v -1.322500 0.000000 -1.000000
v -0.137500 0.050000 -1.285000
v -0.122500 0.000000 -1.300000
v -0.137500 0.050000 -1.015000
v -0.122500 0.000000 -1.000000
v -0.407500 0.050000 -1.285000
v -0.422500 0.000000 -1.300000
v -0.407500 0.050000 -1.015000
v -0.422500 0.000000 -1.000000
v -0.147500 0.050000 1.115000
v -0.122500 0.000000 1.100000
v -0.147500 0.050000 1.385000
v -0.122500 0.000000 1.400000
v -0.597500 0.050000 1.115000
v -0.622500 0.000000 1.100000
v -0.597500 0.050000 1.385000
v -0.622500 0.000000 1.400000
v -0.847500 0.050000 1.115000
v -0.822500 0.000000 1.100000
v -0.847500 0.050000 1.385000
v -0.822500 0.000000 1.400000
v -1.297500 0.050000 1.115000
v -1.322500 0.000000 1.100000
v -1.297500 0.050000 1.385000
v -1.322500 0.000000 1.400000
v 1.237500 0.050000 -0.770000
v 1.277500 0.000000 -0.800000
v 1.237500 0.050000 -0.230000
v 1.277500 0.000000 -0.200000
v 0.617500 0.050000 -0.770000
v 0.577500 0.000000 -0.800000
v 0.617500 0.050000 -0.230000
v 0.577500 0.000000 -0.200000
v 0.577500 0.000000 0.900000
v 0.642500 0.050000 0.855000
v 0.577500 0.000000 0.000000
v 0.642500 0.050000 0.045000
v 1.322500 0.000000 0.900000
v 1.257500 0.050000 0.855000
v 1.322500 0.000000 0.000000
v 1.257500 0.050000 0.045000
vt 0.375000 0.000000
vt 0.625000 0.000000
vt 0.625000 0.250000
vt 0.375000 0.250000
vt 0.625000 0.500000
vt 0.375000 0.500000
vt 0.625000 0.750000
vt 0.375000 0.750000
vt 0.625000 1.000000
vt 0.375000 1.000000
vt 0.125000 0.500000
vt 0.125000 0.750000
vt 0.875000 0.500000
vt 0.875000 0.750000
vt 0.375000 0.000000
vt 0.625000 0.000000
vt 0.625000 0.250000
vt 0.375000 0.250000
vt 0.625000 0.500000
vt 0.375000 0.500000
vt 0.625000 0.750000
vt 0.375000 0.750000
vt 0.625000 1.000000
vt 0.375000 1.000000
vt 0.125000 0.500000
vt 0.125000 0.750000
vt 0.875000 0.500000
vt 0.875000 0.750000
vt 0.375000 0.000000
vt 0.625000 0.000000
vt 0.625000 0.250000
vt 0.375000 0.250000
vt 0.625000 0.500000
vt 0.375000 0.500000
vt 0.625000 0.750000
vt 0.375000 0.750000
vt 0.625000 1.000000
vt 0.375000 1.000000
vt 0.125000 0.500000
vt 0.125000 0.750000
vt 0.875000 0.500000
vt 0.875000 0.750000
vt 0.375000 0.000000
vt 0.625000 0.000000
vt 0.625000 0.250000
vt 0.375000 0.250000
vt 0.625000 0.500000
vt 0.375000 0.500000
vt 0.625000 0.750000
vt 0.375000 0.750000
vt 0.625000 1.000000
vt 0.375000 1.000000
vt 0.125000 0.500000
vt 0.125000 0.750000
vt 0.875000 0.500000
vt 0.875000 0.750000
vt 0.375000 0.500000
vt 0.625000 0.500000
vt 0.625000 0.750000
vt 0.375000 0.750000
vt 0.375000 0.250000
vt 0.625000 0.250000
vt 0.875000 0.500000
vt 0.875000 0.750000
vt 0.625000 1.000000
vt 0.375000 1.000000
vt 0.375000 0.000000
vt 0.625000 0.000000
vt 0.125000 0.500000
vt 0.125000 0.750000
vt 0.625000 0.500000
vt 0.875000 0.500000
vt 0.875000 0.750000
vt 0.625000 0.750000
vt 0.375000 0.250000
vt 0.625000 0.250000
vt 0.375000 0.500000
vt 0.125000 0.500000
vt 0.375000 0.750000
vt 0.125000 0.750000
vt 0.625000 1.000000
vt 0.375000 1.000000
vt 0.375000 0.000000
vt 0.625000 0.000000
vt 0.125000 0.500000
vt 0.375000 0.500000
vt 0.375000 0.750000
vt 0.125000 0.750000
vt 0.375000 0.250000
vt 0.625000 0.250000
vt 0.625000 0.500000
vt 0.375000 0.000000
vt 0.625000 0.000000
vt 0.625000 0.750000
vt 0.625000 1.000000
vt 0.375000 1.000000
vt 0.875000 0.500000
vt 0.875000 0.750000
vt 0.375000 0.000000
vt 0.625000 0.000000
vt 0.625000 0.250000
vt 0.375000 0.250000
vt 0.625000 0.500000
vt 0.375000 0.500000
vt 0.625000 0.750000
vt 0.375000 0.750000
vt 0.625000 1.000000
vt 0.375000 1.000000
vt 0.125000 0.500000
vt 0.125000 0.750000
vt 0.875000 0.500000
vt 0.875000 0.750000
vt 0.375000 0.500000
vt 0.625000 0.500000
vt 0.625000 0.750000
vt 0.375000 0.750000
vt 0.375000 0.250000
vt 0.625000 0.250000
vt 0.875000 0.500000
vt 0.875000 0.750000
vt 0.625000 1.000000
vt 0.375000 1.000000
vt 0.375000 0.000000
vt 0.625000 0.000000
vt 0.125000 0.500000
vt 0.125000 0.750000
vt 0.375000 0.500000
vt 0.625000 0.500000
vt 0.625000 0.750000
vt 0.375000 0.750000
vt 0.375000 0.250000
vt 0.625000 0.250000
vt 0.875000 0.500000
vt 0.875000 0.750000
vt 0.625000 1.000000
vt 0.375000 1.000000
vt 0.375000 0.000000
vt 0.625000 0.000000
vt 0.125000 0.500000
vt 0.125000 0.750000
vt 0.375000 0.500000
vt 0.625000 0.500000
vt 0.625000 0.750000
vt 0.375000 0.750000
vt 0.375000 0.250000
vt 0.625000 0.250000
vt 0.875000 0.500000
vt 0.875000 0.750000
vt 0.625000 1.000000
vt 0.375000 1.000000
vt 0.375000 0.000000
vt 0.625000 0.000000
vt 0.125000 0.500000
vt 0.125000 0.750000
vt 0.375000 0.500000
vt 0.625000 0.500000
vt 0.625000 0.750000
vt 0.375000 0.750000
vt 0.375000 0.250000
vt 0.625000 0.250000
vt 0.875000 0.500000
vt 0.875000 0.750000
vt 0.625000 1.000000
vt 0.375000 1.000000
vt 0.375000 0.000000
vt 0.625000 0.000000
vt 0.125000 0.500000
vt 0.125000 0.750000
vt 0.125000 0.500000
vt 0.375000 0.500000
vt 0.375000 0.750000
vt 0.125000 0.750000
vt 0.375000 0.250000
vt 0.625000 0.250000
vt 0.625000 0.500000
vt 0.375000 0.000000
vt 0.625000 0.000000
vt 0.625000 0.750000
vt 0.625000 1.000000
vt 0.375000 1.000000
vt 0.875000 0.500000
vt 0.875000 0.750000
vt 0.375000 0.000000
vt 0.625000 0.000000
vt 0.625000 0.250000
vt 0.375000 0.250000
vt 0.625000 0.500000
vt 0.375000 0.500000
vt 0.625000 0.750000
vt 0.375000 0.750000
vt 0.625000 1.000000
vt 0.375000 1.000000
vt 0.125000 0.500000
vt 0.125000 0.750000
vt 0.875000 0.500000
vt 0.875000 0.750000
vn -0.640204 0.768205 0.000000
vn -0.640204 0.768205 0.000000
vn -0.640204 0.768205 0.000000
vn -0.640204 0.768205 0.000000
vn 0.000000 0.792620 -0.609716
vn 0.000000 0.792620 -0.609716
vn 0.000000 0.792620 -0.609716
vn 0.000000 0.792620 -0.609716
vn 0.640204 0.768205 0.000000
vn 0.640204 0.768205 0.000000
vn 0.640204 0.768205 0.000000
vn 0.640204 0.768205 0.000000
vn 0.000000 0.792620 0.609716
vn 0.000000 0.792620 0.609716
vn 0.000000 0.792620 0.609716
vn 0.000000 0.792620 0.609716
vn 0.000000 -1.000000 0.000000
vn 0.000000 -1.000000 0.000000
vn 0.000000 -1.000000 0.000000
vn 0.000000 -1.000000 0.000000
vn 0.000000 1.000000 0.000000
vn 0.000000 1.000000 0.000000
vn 0.000000 1.000000 0.000000
vn 0.000000 1.000000 0.000000
vn -0.640204 0.768205 0.000000
vn -0.640204 0.768205 0.000000
vn -0.640204 0.768205 0.000000
vn -0.640204 0.768205 0.000000
vn 0.000000 0.514496 -0.857493
vn 0.000000 0.514496 -0.857493
vn 0.000000 0.514496 -0.857493
vn 0.000000 0.514496 -0.857493
vn 0.640204 0.768205 0.000000
vn 0.640204 0.768205 0.000000
vn 0.640204 0.768205 0.000000
vn 0.640204 0.768205 0.000000
vn 0.000000 0.514496 0.857493
vn 0.000000 0.514496 0.857493
vn 0.000000 0.514496 0.857493
vn 0.000000 0.514496 0.857493
vn 0.000000 -1.000000 0.000000
vn 0.000000 -1.000000 0.000000
vn 0.000000 -1.000000 0.000000
vn 0.000000 -1.000000 0.000000
vn 0.000000 1.000000 0.000000
vn 0.000000 1.000000 0.000000
vn 0.000000 1.000000 0.000000
vn 0.000000 1.000000 0.000000
vn -0.485592 0.874186 0.000000
vn -0.282215 0.959351 0.000000
vn -0.282215 0.959351 0.000000
vn -0.485592 0.874186 0.000000
vn 0.000000 0.707107 -0.707107
vn 0.000000 0.707107 -0.707107
vn 0.000000 0.707107 -0.707107
vn 0.000000 0.707107 -0.707107
vn 0.485592 0.874186 0.000000
vn 0.282215 0.959351 0.000000
vn 0.282215 0.959351 0.000000
vn 0.485592 0.874186 0.000000
vn 0.000000 0.707107 0.707107
vn 0.000000 0.707107 0.707107
vn 0.000000 0.707107 0.707107
vn 0.000000 0.707107 0.707107
vn 0.000000 -1.000000 0.000000
vn 0.000000 -1.000000 0.000000
vn 0.000000 -1.000000 0.000000
vn 0.000000 -1.000000 0.000000
vn 0.282215 0.959351 0.000000
vn -0.282215 0.959351 0.000000
vn -0.282215 0.959351 0.000000
vn 0.282215 0.959351 0.000000
vn -0.980585 0.196097 0.000000
vn -0.980585 0.196097 0.000000
vn -0.980585 0.196097 0.000000
vn -0.980585 0.196097 0.000000
vn 0.000000 0.371391 -0.928477
vn 0.000000 0.371391 -0.928477
vn 0.000000 0.371391 -0.928477
vn 0.000000 0.371391 -0.928477
vn 0.980585 0.196097 0.000000
vn 0.980585 0.196097 0.000000
vn 0.980585 0.196097 0.000000
vn 0.980585 0.196097 0.000000
vn 0.000000 0.371391 0.928477
vn 0.000000 0.371391 0.928477
vn 0.000000 0.371391 0.928477
vn 0.000000 0.371391 0.928477
vn 0.000000 -1.000000 0.000000
vn 0.000000 -1.000000 0.000000
vn 0.000000 -1.000000 0.000000
vn 0.000000 -1.000000 0.000000
vn 0.000000 1.000000 0.000000
vn 0.000000 1.000000 0.000000
vn 0.000000 1.000000 0.000000
vn 0.000000 1.000000 0.000000
vn 0.780879 0.624683 0.000000
vn 0.780879 0.624683 0.000000
vn 0.780879 0.624683 0.000000
vn 0.780879 0.624683 0.000000
vn 0.000000 0.371391 -0.928477
vn 0.000000 0.371391 -0.928477
vn 0.000000 0.371391 -0.928477
vn 0.000000 0.371391 -0.928477
vn 0.000000 1.000000 0.000000
vn 0.000000 1.000000 0.000000
vn 0.000000 1.000000 0.000000
vn 0.000000 1.000000 0.000000
vn 0.000000 0.371391 0.928477
vn 0.000000 0.371391 0.928477
vn 0.000000 0.371391 0.928477
vn 0.000000 0.371391 0.928477
vn -0.780879 0.624683 0.000000
vn -0.780879 0.624683 0.000000
vn -0.780879 0.624683 0.000000
vn -0.780879 0.624683 0.000000
vn 0.000000 -1.000000 0.000000
vn 0.000000 -1.000000 0.000000
vn 0.000000 -1.000000 0.000000
vn 0.000000 -1.000000 0.000000
vn 0.000000 1.000000 0.000000
vn 0.000000 1.000000 0.000000
vn 0.000000 1.000000 0.000000
vn 0.000000 1.000000 0.000000
vn 0.000000 0.792620 -0.609716
vn 0.000000 0.792620 -0.609716
vn 0.000000 0.792620 -0.609716
vn 0.000000 0.792620 -0.609716
vn 0.000000 -1.000000 0.000000
vn 0.000000 -1.000000 0.000000
vn 0.000000 -1.000000 0.000000
vn 0.000000 -1.000000 0.000000
vn 0.000000 0.792620 0.609716
vn 0.000000 0.792620 0.609716
vn 0.000000 0.792620 0.609716
vn 0.000000 0.792620 0.609716
vn 0.640204 0.768205 0.000000
vn 0.640204 0.768205 0.000000
vn 0.640204 0.768205 0.000000
vn 0.640204 0.768205 0.000000
vn -0.640204 0.768205 0.000000
vn -0.640204 0.768205 0.000000
vn -0.640204 0.768205 0.000000
vn -0.640204 0.768205 0.000000
vn 0.000000 -1.000000 0.000000
vn 0.000000 -1.000000 0.000000
vn 0.000000 -1.000000 0.000000
vn 0.000000 -1.000000 0.000000
vn 0.000000 0.813740 -0.581229
vn 0.000000 0.813740 -0.581229
vn 0.000000 0.813740 -0.581229
vn 0.000000 0.813740 -0.581229
vn -0.640204 0.768205 0.000000
vn -0.640204 0.768205 0.000000
vn -0.640204 0.768205 0.000000
vn -0.640204 0.768205 0.000000
vn 0.000000 0.813740 0.581229
vn 0.000000 0.813740 0.581229
vn 0.000000 0.813740 0.581229
vn 0.000000 0.813740 0.581229
vn 0.000000 1.000000 0.000000
vn 0.000000 1.000000 0.000000
vn 0.000000 1.000000 0.000000
vn 0.000000 1.000000 0.000000
vn 0.640204 0.768205 0.000000
vn 0.640204 0.768205 0.000000
vn 0.640204 0.768205 0.000000
vn 0.640204 0.768205 0.000000
vn -0.507020 0.861934 0.000000
vn -0.507020 0.861934 0.000000
vn -0.507020 0.861934 0.000000
vn -0.507020 0.861934 0.000000
vn 0.000000 0.861934 -0.507020
vn 0.000000 0.861934 -0.507020
vn 0.000000 0.861934 -0.507020
vn 0.000000 0.861934 -0.507020
vn 0.507020 0.861934 0.000000
vn 0.507020 0.861934 0.000000
vn 0.507020 0.861934 0.000000
vn 0.507020 0.861934 0.000000
vn 0.000000 0.861934 0.507020
vn 0.000000 0.861934 0.507020
vn 0.000000 0.861934 0.507020
vn 0.000000 0.861934 0.507020
vn 0.000000 -1.000000 0.000000
vn 0.000000 -1.000000 0.000000
vn 0.000000 -1.000000 0.000000
vn 0.000000 -1.000000 0.000000
vn 0.000000 1.000000 0.000000
vn 0.000000 1.000000 0.000000
vn 0.000000 1.000000 0.000000
vn 0.000000 1.000000 0.000000
vn 0.819204 0.573503 0.000000
vn 0.819204 0.573503 0.000000
vn 0.819204 0.573503 0.000000
vn 0.819204 0.573503 0.000000
vn 0.000000 0.287311 -0.957837
vn 0.000000 0.287311 -0.957837
vn 0.000000 0.287311 -0.957837
vn 0.000000 0.287311 -0.957837
vn 0.000000 1.000000 0.000000
vn 0.000000 1.000000 0.000000
vn 0.000000 1.000000 0.000000
vn 0.000000 1.000000 0.000000
vn 0.000000 0.287311 0.957837
vn 0.000000 0.287311 0.957837
vn 0.000000 0.287311 0.957837
vn 0.000000 0.287311 0.957837
vn -0.819204 0.573503 0.000000
vn -0.819204 0.573503 0.000000
vn -0.819204 0.573503 0.000000
vn -0.819204 0.573503 0.000000
vn 0.000000 -1.000000 0.000000
vn 0.000000 -1.000000 0.000000
vn 0.000000 -1.000000 0.000000
vn 0.000000 -1.000000 0.000000
vn 0.957837 0.287311 0.000000
vn 0.957837 0.287311 0.000000
vn 0.957837 0.287311 0.000000
vn 0.957837 0.287311 0.000000
vn 0.000000 0.287311 -0.957837
vn 0.000000 0.287311 -0.957837
vn 0.000000 0.287311 -0.957837
vn 0.000000 0.287311 -0.957837
vn 0.000000 1.000000 0.000000
vn 0.000000 1.000000 0.000000
vn 0.000000 1.000000 0.000000
vn 0.000000 1.000000 0.000000
vn 0.000000 0.287311 0.957837
vn 0.000000 0.287311 0.957837
vn 0.000000 0.287311 0.957837
vn 0.000000 0.287311 0.957837
vn -0.957837 0.287311 0.000000
vn -0.957837 0.287311 0.000000
vn -0.957837 0.287311 0.000000
vn -0.957837 0.287311 0.000000
vn 0.000000 -1.000000 0.000000
vn 0.000000 -1.000000 0.000000
vn 0.000000 -1.000000 0.000000
vn 0.000000 -1.000000 0.000000
vn 0.894427 0.447214 0.000000
vn 0.894427 0.447214 0.000000
vn 0.894427 0.447214 0.000000
vn 0.894427 0.447214 0.000000
vn 0.000000 0.287311 -0.957837
vn 0.000000 0.287311 -0.957837
vn 0.000000 0.287311 -0.957837
vn 0.000000 0.287311 -0.957837
vn 0.000000 1.000000 0.000000
vn 0.000000 1.000000 0.000000
vn 0.000000 1.000000 0.000000
vn 0.000000 1.000000 0.000000
vn 0.000000 0.287311 0.957837
vn 0.000000 0.287311 0.957837
vn 0.000000 0.287311 0.957837
vn 0.000000 0.287311 0.957837
vn -0.894427 0.447214 0.000000
vn -0.894427 0.447214 0.000000
vn -0.894427 0.447214 0.000000
vn -0.894427 0.447214 0.000000
vn 0.000000 -1.000000 0.000000
vn 0.000000 -1.000000 0.000000
vn 0.000000 -1.000000 0.000000
vn 0.000000 -1.000000 0.000000
vn 0.894427 0.447214 0.000000
vn 0.894427 0.447214 0.000000
vn 0.894427 0.447214 0.000000
vn 0.894427 0.447214 0.000000
vn 0.000000 0.287311 -0.957837
vn 0.000000 0.287311 -0.957837
vn 0.000000 0.287311 -0.957837
vn 0.000000 0.287311 -0.957837
vn 0.000000 1.000000 0.000000
vn 0.000000 1.000000 0.000000
vn 0.000000 1.000000 0.000000
vn 0.000000 1.000000 0.000000
vn 0.000000 0.287311 0.957837
vn 0.000000 0.287311 0.957837
vn 0.000000 0.287311 0.957837
vn 0.000000 0.287311 0.957837
vn -0.894427 0.447214 0.000000
vn -0.894427 0.447214 0.000000
vn -0.894427 0.447214 0.000000
vn -0.894427 0.447214 0.000000
vn 0.000000 -1.000000 0.000000
vn 0.000000 -1.000000 0.000000
vn 0.000000 -1.000000 0.000000
vn 0.000000 -1.000000 0.000000
vn 0.000000 -1.000000 0.000000
vn 0.000000 -1.000000 0.000000
vn 0.000000 -1.000000 0.000000
vn 0.000000 -1.000000 0.000000
vn 0.000000 0.514496 -0.857493
vn 0.000000 0.514496 -0.857493
vn 0.000000 0.514496 -0.857493
vn 0.000000 0.514496 -0.857493
vn -0.780879 0.624683 0.000000
vn -0.780879 0.624683 0.000000
vn -0.780879 0.624683 0.000000
vn -0.780879 0.624683 0.000000
vn 0.000000 0.514496 0.857493
vn 0.000000 0.514496 0.857493
vn 0.000000 0.514496 0.857493
vn 0.000000 0.514496 0.857493
vn 0.000000 1.000000 0.000000
vn 0.000000 1.000000 0.000000
vn 0.000000 1.000000 0.000000
vn 0.000000 1.000000 0.000000
vn 0.780879 0.624683 0.000000
vn 0.780879 0.624683 0.000000
vn 0.780879 0.624683 0.000000
vn 0.780879 0.624683 0.000000
vn -0.609716 0.792620 0.000000
vn -0.609716 0.792620 0.000000
vn -0.609716 0.792620 0.000000
vn -0.609716 0.792620 0.000000
vn 0.000000 0.668981 -0.743279
vn 0.000000 0.668981 -0.743279
vn 0.000000 0.668981 -0.743279
vn 0.000000 0.668981 -0.743279
vn 0.609716 0.792620 0.000000
vn 0.609716 0.792620 0.000000
vn 0.609716 0.792620 0.000000
vn 0.609716 0.792620 0.000000
vn 0.000000 0.668981 0.743279
vn 0.000000 0.668981 0.743279
vn 0.000000 0.668981 0.743279
vn 0.000000 0.668981 0.743279
vn 0.000000 -1.000000 0.000000
vn 0.000000 -1.000000 0.000000
vn 0.000000 -1.000000 0.000000
vn 0.000000 -1.000000 0.000000
vn 0.000000 1.000000 0.000000
vn 0.000000 1.000000 0.000000
vn 0.000000 1.000000 0.000000
vn 0.000000 1.000000 0.000000
s off
g floorDecoration_tilesLarge1:Mesh
usemtl floorDecoration_tilesLarge1:Stone
f 1/1/1 2/2/2 4/3/3 3/4/4
f 3/4/5 4/3/6 8/5/7 7/6/8
f 7/6/9 8/5/10 6/7/11 5/8/12
f 5/8/13 6/7/14 2/9/15 1/10/16
f 3/11/17 7/6/18 5/8/19 1/12/20
f 8/5/21 4/13/22 2/14/23 6/7/24
f 9/15/25 10/16/26 12/17/27 11/18/28
f 11/18/29 12/17/30 16/19/31 15/20/32
f 15/20/33 16/19/34 14/21/35 13/22/36
f 13/22/37 14/21/38 10/23/39 9/24/40
f 11/25/41 15/20/42 13/22/43 9/26/44
f 16/19/45 12/27/46 10/28/47 14/21/48
f 17/29/49 18/30/50 20/31/51 19/32/52
f 19/32/53 20/31/54 24/33/55 23/34/56
f 23/34/57 24/33/58 22/35/59 21/36/60
f 21/36/61 22/35/62 18/37/63 17/38/64
f 19/39/65 23/34/66 21/36/67 17/40/68
f 24/33/69 20/41/70 18/42/71 22/35/72
f 25/43/73 26/44/74 28/45/75 27/46/76
f 27/46/77 28/45/78 32/47/79 31/48/80
f 31/48/81 32/47/82 30/49/83 29/50/84
f 29/50/85 30/49/86 26/51/87 25/52/88
f 27/53/89 31/48/90 29/50/91 25/54/92
f 32/47/93 28/55/94 26/56/95 30/49/96
f 34/57/97 33/58/98 35/59/99 36/60/100
f 38/61/101 37/62/102 33/58/103 34/57/104
f 33/58/105 37/63/106 39/64/107 35/59/108
f 36/60/109 35/59/110 39/65/111 40/66/112
f 40/67/113 39/68/114 37/62/115 38/61/116
f 38/69/117 34/57/118 36/60/119 40/70/120
f 48/71/121 44/72/122 42/73/123 46/74/124
f 43/75/125 44/76/126 48/71/127 47/77/128
f 43/78/129 47/77/130 45/79/131 41/80/132
f 45/79/133 46/74/134 42/81/135 41/82/136
f 47/77/137 48/71/138 46/74/139 45/79/140
f 41/83/141 42/84/142 44/76/143 43/75/144
f 54/85/145 50/86/146 52/87/147 56/88/148
f 54/89/149 53/90/150 49/91/151 50/86/152
f 56/92/153 55/93/154 53/90/155 54/89/156
f 52/87/157 51/94/158 55/95/159 56/96/160
f 49/91/161 53/97/162 55/98/163 51/94/164
f 50/86/165 49/91/166 51/94/167 52/87/168
f 57/99/169 58/100/170 60/101/171 59/102/172
f 59/102/173 60/101/174 64/103/175 63/104/176
f 63/104/177 64/103/178 62/105/179 61/106/180
f 61/106/181 62/105/182 58/107/183 57/108/184
f 59/109/185 63/104/186 61/106/187 57/110/188
f 64/103/189 60/111/190 58/112/191 62/105/192
f 66/113/193 65/114/194 67/115/195 68/116/196
f 70/117/197 69/118/198 65/114/199 66/113/200
f 65/114/201 69/119/202 71/120/203 67/115/204
f 68/116/205 67/115/206 71/121/207 72/122/208
f 72/123/209 71/124/210 69/118/211 70/117/212
f 70/125/213 66/113/214 68/116/215 72/126/216
f 74/127/217 73/128/218 75/129/219 76/130/220
f 78/131/221 77/132/222 73/128/223 74/127/224
f 73/128/225 77/133/226 79/134/227 75/129/228
f 76/130/229 75/129/230 79/135/231 80/136/232
f 80/137/233 79/138/234 77/132/235 78/131/236
f 78/139/237 74/127/238 76/130/239 80/140/240
f 82/141/241 81/142/242 83/143/243 84/144/244
f 86/145/245 85/146/246 81/142/247 82/141/248
f 81/142/249 85/147/250 87/148/251 83/143/252
f 84/144/253 83/143/254 87/149/255 88/150/256
f 88/151/257 87/152/258 85/146/259 86/145/260
f 86/153/261 82/141/262 84/144/263 88/154/264
f 90/155/265 89/156/266 91/157/267 92/158/268
f 94/159/269 93/160/270 89/156/271 90/155/272
f 89/156/273 93/161/274 95/162/275 91/157/276
f 92/158/277 91/157/278 95/163/279 96/164/280
f 96/165/281 95/166/282 93/160/283 94/159/284
f 94/167/285 90/155/286 92/158/287 96/168/288
f 102/169/289 98/170/290 100/171/291 104/172/292
f 102/173/293 101/174/294 97/175/295 98/170/296
f 104/176/297 103/177/298 101/174/299 102/173/300
f 100/171/301 99/178/302 103/179/303 104/180/304
f 97/175/305 101/181/306 103/182/307 99/178/308
f 98/170/309 97/175/310 99/178/311 100/171/312
f 105/183/313 106/184/314 108/185/315 107/186/316
f 107/186/317 108/185/318 112/187/319 111/188/320
f 111/188/321 112/187/322 110/189/323 109/190/324
f 109/190/325 110/189/326 106/191/327 105/192/328
f 107/193/329 111/188/330 109/190/331 105/194/332
f 112/187/333 108/195/334 106/196/335 110/189/336
